<?xml version="1.0" standalone="no"?><svg xmlns="http://www.w3.org/2000/svg" viewBox="0 0 1440 320"><path fill="#0099ff" fill-opacity="1" d="M0,128L17.1,160C34.3,192,69,256,103,240C137.1,224,171,128,206,117.3C240,107,274,181,309,213.3C342.9,245,377,235,411,213.3C445.7,192,480,160,514,154.7C548.6,149,583,171,617,170.7C651.4,171,686,149,720,160C754.3,171,789,213,823,245.3C857.1,277,891,299,926,293.3C960,288,994,256,1029,218.7C1062.9,181,1097,139,1131,128C1165.7,117,1200,139,1234,138.7C1268.6,139,1303,117,1337,128C1371.4,139,1406,181,1423,202.7L1440,224L1440,0L1422.9,0C1405.7,0,1371,0,1337,0C1302.9,0,1269,0,1234,0C1200,0,1166,0,1131,0C1097.1,0,1063,0,1029,0C994.3,0,960,0,926,0C891.4,0,857,0,823,0C788.6,0,754,0,720,0C685.7,0,651,0,617,0C582.9,0,549,0,514,0C480,0,446,0,411,0C377.1,0,343,0,309,0C274.3,0,240,0,206,0C171.4,0,137,0,103,0C68.6,0,34,0,17,0L0,0Z"></path></svg>