<?xml version="1.0" standalone="no"?><svg xmlns="http://www.w3.org/2000/svg" viewBox="0 0 1440 320"><path fill="#0099ff" fill-opacity="1" d="M0,288L30,250.7C60,213,120,139,180,106.7C240,75,300,85,360,122.7C420,160,480,224,540,234.7C600,245,660,203,720,208C780,213,840,267,900,261.3C960,256,1020,192,1080,181.3C1140,171,1200,213,1260,234.7C1320,256,1380,256,1410,256L1440,256L1440,0L1410,0C1380,0,1320,0,1260,0C1200,0,1140,0,1080,0C1020,0,960,0,900,0C840,0,780,0,720,0C660,0,600,0,540,0C480,0,420,0,360,0C300,0,240,0,180,0C120,0,60,0,30,0L0,0Z"></path></svg>